/* XPM */
/* License: http://creativecommons.org/licenses/by-sa/3.0/	*/
/* Source:  echo-icon-theme		*/
/* Source URL:  https://fedorahosted.org/echo-icon-theme/		*/
static char *utilities_terminal[] = {
/* columns rows colors chars-per-pixel */
"16 16 85 1",
"  c #364E59",
". c #016AA2",
"X c #016BA2",
"o c #016BA3",
"O c #0472AD",
"+ c #0473AD",
"@ c #0473AE",
"# c #077BB9",
"$ c #077BBA",
"% c #077CBA",
"& c #0A83C4",
"* c #0A83C5",
"= c #0A84C5",
"- c #0D8BCF",
"; c #0D8CD0",
": c #0F8DD1",
"> c #1094DB",
", c #1395DB",
"< c #1094DC",
"1 c #1395DC",
"2 c #1F9BDD",
"3 c #1F9BDE",
"4 c #3BA1D8",
"5 c #3BA2D9",
"6 c #129CE6",
"7 c #129CE7",
"8 c #139CE7",
"9 c #139DE7",
"0 c #139DE8",
"q c #199FE9",
"w c #15A4F2",
"e c #15A5F2",
"r c #16A5F3",
"t c #18ADFD",
"y c #18ADFE",
"u c #28ACF4",
"i c #3AB3F5",
"p c #39B9FF",
"a c #3AB9FF",
"s c #3BBAFF",
"d c #3CBAFF",
"f c #3DBAFF",
"g c #58B5E7",
"h c #5BB6E7",
"j c #62B5E1",
"k c #74BDE5",
"l c #4FC1FF",
"z c #52C2FF",
"x c #6DC2F0",
"c c #79C7F2",
"v c #8BD2F9",
"b c #A2DEFF",
"n c #CEE0E8",
"m c #CFE1EB",
"M c #CFE2EC",
"N c #CEE2ED",
"B c #CEE3ED",
"V c #D0E4EE",
"C c #D0E5EF",
"Z c #C3E8FC",
"A c #C7EBFF",
"S c #D1E6F1",
"D c #D0E6F2",
"F c #D1E6F3",
"G c #D0E7F3",
"H c #D1E9F5",
"J c #D2E8F5",
"K c #D1E9F7",
"L c #D8ECF7",
"P c #D1EBF8",
"I c #D2EBF8",
"U c #D6EDF9",
"Y c #D4EDFB",
"T c #D3EEFD",
"R c #D9F1FE",
"E c #ECF1F2",
"W c #EFF3F5",
"Q c #E5F3FB",
"! c #E1F4FF",
"~ c #EEF8FE",
"^ c #F7FAFC",
"/ c #FAFDFF",
"( c #FBFDFF",
") c #FFFFFF",
"_ c None",
/* pixels */
"________________",
"                ",
" W!!!!!!!!!R!!( ",
" LlffsffssssssR ",
" IbAztttttttttT ",
" Kuv~ZirwwrrwwU ",
" K8qc(x8008866I ",
" KgQUh>,2222>>K ",
" Fkj;;;5((((4:S ",
" F========&&&&V ",
" F%#%#%#######V ",
" V@@@@++@@@@OOV ",
" Boo.ooo......n ",
" ^MMMMMMMmmVVnE ",
"                ",
"________________"
};
