/* XPM */
static char *virtualbox[] = {
/* columns rows colors chars-per-pixel */
"24 24 119 2 ",
"   c #2D4160",
".  c #354A69",
"X  c #405776",
"o  c #435978",
"O  c #4A6685",
"+  c #4A6887",
"@  c #4A6988",
"#  c #547496",
"$  c #54779B",
"%  c #54789C",
"&  c #5087A7",
"*  c #5A82A3",
"=  c #5B84AB",
"-  c #548AAA",
";  c #5A8EAE",
":  c #5990AF",
">  c #4F97B9",
",  c #4F99BB",
"<  c #5D93B2",
"1  c #5197B8",
"2  c #5C94BC",
"3  c #559CBE",
"4  c #5B9CBC",
"5  c #6181A1",
"6  c #6091B0",
"7  c #6598B6",
"8  c #6A99B7",
"9  c #6296BD",
"0  c #639BBD",
"q  c #699DBA",
"w  c #769FBB",
"e  c #66A1BF",
"r  c #6AA0BF",
"t  c #77A1BE",
"y  c #7DA5BD",
"u  c #559CC2",
"i  c #589EC0",
"p  c #569FC9",
"a  c #669DC1",
"s  c #6A9FC2",
"d  c #57A0C6",
"f  c #5FA3C1",
"g  c #55A2CB",
"h  c #58A6CD",
"j  c #59A9CF",
"k  c #56A3D0",
"l  c #5AA4D1",
"z  c #54A8D3",
"x  c #5AABD1",
"c  c #5CB0D5",
"v  c #61A4C3",
"b  c #6AA3C4",
"n  c #6FABC7",
"m  c #6FA7C8",
"M  c #72A4C4",
"N  c #78A7C3",
"B  c #7BADC7",
"V  c #74AEC9",
"C  c #60ADD2",
"Z  c #64B0D4",
"A  c #6AB3D3",
"S  c #6CB7D9",
"D  c #63B9DC",
"F  c #6EBDDD",
"G  c #7DB1D0",
"H  c #70B8D7",
"J  c #7FBAD6",
"K  c #62C0DD",
"L  c #65C1E2",
"P  c #6BC3E6",
"I  c #70C3E1",
"U  c #77C9E7",
"Y  c #81A8BF",
"T  c #84ABC3",
"R  c #8AACC2",
"E  c #88AFC8",
"W  c #8BB0C7",
"Q  c #82B5CD",
"!  c #8BB4CA",
"~  c #92B5CB",
"^  c #94B9CE",
"/  c #9ABBCE",
"(  c #80BAD7",
")  c #81BBD8",
"_  c #95BDD2",
"`  c #9BBDD2",
"'  c #94C0D6",
"]  c #9FC0D3",
"[  c #91C3DA",
"{  c #9BC5D9",
"}  c #A2C2D5",
"|  c #A8C6D5",
" . c #A6C7D8",
".. c #ACCADA",
"X. c #B2CDDD",
"o. c #BACFDD",
"O. c #B9D0DF",
"+. c #85D3EF",
"@. c #93DAF4",
"#. c #ADD5E6",
"$. c #AFD7E8",
"%. c #B7D4E2",
"&. c #BAD6E4",
"*. c #BBD8E5",
"=. c #C0D3DF",
"-. c #C1D4E1",
";. c #C7DBE6",
":. c #CFDFE7",
">. c #C0DBE8",
",. c #CFDEE8",
"<. c #CEE2EB",
"1. c #D3E3EB",
"2. c #DAE5EC",
"3. c #DCE8EF",
"4. c #DFE9F0",
"5. c #E2EAEF",
"6. c #E3EDF2",
"7. c #EBF3F6",
"8. c None",
/* pixels */
"8.8.8.8.8.8.8.8.8.8.8.8.8.8.8.8.8.8.8.8.8.8.8.8.",
"8.8.8.O @ @ @ @ @ @ @ @ @ + + @ + + @ + 8.8.8.8.",
"8.8.* G ) ) ) ) ) ) ) J J J J J J J ( G 5 8.8.8.",
"8.8.M @.P L P L L L L L K K K D K K K +.N . 8.8.",
"8.8.M U H #.$.$.$.#.#.#.#.#.#.#.#.#.A D m . 8.8.",
"8.8.M I [ 7.*.*.*.*.*.*.*.*.*.&.*.7.' c b . 8.8.",
"8.8.b I { 1.v i 4 3 v n 3 V f , d <.[ x b . 8.8.",
"8.8.s F { 1.b f 4 4 ' ..f O.G , i <.' x b . 8.8.",
"8.8.s F { 2.q 9 0 e &.3.B 6. .1 4 <.' j b . 8.8.",
"8.8.a S } 6.X.` r r 1.5.X.7.<.4 4 <.' j 0 . 8.8.",
"8.8.a S } 7.,.6.W ~ ;.O.6...<.B 4 <.' h a . 8.8.",
"8.8.9 S } 2.w =.......R 3.N O. .< 1._ h a . 8.8.",
"8.8.a C } 2.8 / 2.2.W 8  .< ! 6.;.7.^ g a . 8.8.",
"8.8.a C ` 2.8 w 5.3.8 : 8 : 8 / | 6.^ d 9 . 8.8.",
"8.8.2 x ` 2.8 6 =.o.; : ; : ; - ; :.^ p 9 . 8.8.",
"8.8.2 h / 1.: - T Y & - & - & & - :.^ i 9 . 8.8.",
"8.8.2 g _ 2.T N T Y y y y y y y y 2.~ u 9 . 8.8.",
"8.8.2 g Q 4.3.3.2.2.2.2.2.2.2.2.3.5.R 3 2 . 8.8.",
"8.8.2 z 3 e r e 0 q q q 8 q q 8 8 8 < g 2 . 8.8.",
"8.8.= l h g g g h g g g g p g p p p g h =   8.8.",
"8.8.o # $ % $ $ $ $ % % % % % % % % % # o 8.8.8.",
"8.8.8.8.8.8.8.8.8.8.8.8.8.8.8.8.8.8.8.8.8.8.8.8.",
"8.8.8.8.8.8.8.8.8.8.8.8.8.8.8.8.8.8.8.8.8.8.8.8.",
"8.8.8.8.8.8.8.8.8.8.8.8.8.8.8.8.8.8.8.8.8.8.8.8."
};
