/* XPM */
static char * win_arrow_xpm[] = {
"16 16 9 1",
" 	c None",
".	c #000000",
"+	c #C00000",
"@	c #FFFF00",
"#	c #FF0000",
"$	c #0000FF",
"%	c #C0FFFF",
"&	c #FFFFFF",
"*	c #C3C3C3",
"             .. ",
"   ..   ..  .++.",
"   .@.. .+..+#+.",
"   .$$$..##+#+. ",
"   .%$$$.###+.  ",
".. .&&%$.####.  ",
".@..*&&&.####+. ",
".$$$..*&....... ",
".%$$$$..&&&&.   ",
".&&%$$@.*&&&.   ",
".&&&&%$.*&&&.   ",
".*&&&&&.*&&&.   ",
"..*&&&&.*&&&.   ",
"  ..*&&..*&&.   ",
"    ..*. ..*.   ",
"      ..   ..   "};
