/* XPM */
static char * icon32_xpm[] = {
"32 32 625 2",
"  	c None",
". 	c #202660",
"+ 	c #143681",
"@ 	c #143783",
"# 	c #133783",
"$ 	c #143885",
"% 	c #133885",
"& 	c #133987",
"* 	c #123988",
"= 	c #123A89",
"- 	c #113B8A",
"; 	c #123B8C",
"> 	c #113B8C",
", 	c #113C8E",
"' 	c #103D8F",
") 	c #103E91",
"! 	c #0F3E93",
"~ 	c #0E4095",
"{ 	c #0D4197",
"] 	c #0C4299",
"^ 	c #0C429B",
"/ 	c #0B449D",
"( 	c #0B449F",
"_ 	c #0A45A1",
": 	c #0947A3",
"< 	c #0947A5",
"[ 	c #0848A7",
"} 	c #074AA9",
"| 	c #064AAB",
"1 	c #064BAD",
"2 	c #064DAF",
"3 	c #183983",
"4 	c #163883",
"5 	c #153783",
"6 	c #143985",
"7 	c #123987",
"8 	c #123989",
"9 	c #113A8B",
"0 	c #113C8D",
"a 	c #0F3D91",
"b 	c #0F3F93",
"c 	c #0D4097",
"d 	c #0C4199",
"e 	c #0B459F",
"f 	c #0947A4",
"g 	c #0847A6",
"h 	c #0849A7",
"i 	c #0749A9",
"j 	c #064CAD",
"k 	c #173781",
"l 	c #163681",
"m 	c #163782",
"n 	c #163784",
"o 	c #133886",
"p 	c #123A8A",
"q 	c #123B8B",
"r 	c #113C8C",
"s 	c #113B8D",
"t 	c #103C8D",
"u 	c #103D90",
"v 	c #0F3E92",
"w 	c #0E3E93",
"x 	c #0E4096",
"y 	c #0D4299",
"z 	c #0D449C",
"A 	c #0D45A0",
"B 	c #0C46A2",
"C 	c #0C47A3",
"D 	c #0C49A6",
"E 	c #0B49A6",
"F 	c #0949A8",
"G 	c #084AAA",
"H 	c #074BAB",
"I 	c #173880",
"J 	c #153682",
"K 	c #133887",
"L 	c #123A88",
"M 	c #113B8B",
"N 	c #113D8E",
"O 	c #123F91",
"P 	c #144195",
"Q 	c #16469A",
"R 	c #194BA0",
"S 	c #1E51A8",
"T 	c #2457B1",
"U 	c #275CB8",
"V 	c #295FBA",
"W 	c #285FBC",
"X 	c #265EBA",
"Y 	c #215BB9",
"Z 	c #1A57B5",
"` 	c #1454B2",
" .	c #0D4EAE",
"..	c #19377F",
"+.	c #16367F",
"@.	c #153580",
"#.	c #143581",
"$.	c #153681",
"%.	c #143784",
"&.	c #133A88",
"*.	c #133D8D",
"=.	c #1B4595",
"-.	c #254FA1",
";.	c #2D59AC",
">.	c #3763B8",
",.	c #3F6DC5",
"'.	c #4574D1",
").	c #3F74DC",
"!.	c #4279E6",
"~.	c #4C81EB",
"{.	c #4980ED",
"].	c #3B78EC",
"^.	c #3D77EB",
"/.	c #2D6ADF",
"(.	c #2A68DD",
"_.	c #2B6AD9",
":.	c #2461CC",
"<.	c #17347C",
"[.	c #16347E",
"}.	c #15357E",
"|.	c #153680",
"1.	c #143781",
"2.	c #133986",
"3.	c #143B8A",
"4.	c #1F4796",
"5.	c #345CAC",
"6.	c #4470C5",
"7.	c #4D7BD7",
"8.	c #5786E4",
"9.	c #5E8EEE",
"0.	c #4D84F5",
"a.	c #3877F7",
"b.	c #3169D9",
"c.	c #336BDB",
"d.	c #3066D5",
"e.	c #3165CE",
"f.	c #2B58B4",
"g.	c #2852AA",
"h.	c #2C5BBB",
"i.	c #2B5DC3",
"j.	c #2A61C8",
"k.	c #17337C",
"l.	c #16337D",
"m.	c #16357E",
"n.	c #153782",
"o.	c #183D8A",
"p.	c #264D9A",
"q.	c #3D64B3",
"r.	c #567ED0",
"s.	c #6490E9",
"t.	c #6695F6",
"u.	c #598FFC",
"v.	c #4B84FE",
"w.	c #3777F9",
"x.	c #2E5FC6",
"y.	c #3266CF",
"z.	c #3062CB",
"A.	c #2D5EC5",
"B.	c #2750A6",
"C.	c #234C9C",
"D.	c #2952A8",
"E.	c #264FA3",
"F.	c #2954B0",
"G.	c #2856B4",
"H.	c #17337A",
"I.	c #17347B",
"J.	c #16347D",
"K.	c #15367F",
"L.	c #1C3F89",
"M.	c #2D519D",
"N.	c #3F66BA",
"O.	c #5882D8",
"P.	c #6793EE",
"Q.	c #6C9CFA",
"R.	c #5C91FE",
"S.	c #4483FF",
"T.	c #346FE3",
"U.	c #3065D2",
"V.	c #2B5DC1",
"W.	c #2956B3",
"X.	c #254EA2",
"Y.	c #2853AF",
"Z.	c #2F63CC",
"`.	c #356FE3",
" +	c #3770E8",
".+	c #366FE6",
"++	c #17327A",
"@+	c #16337B",
"#+	c #17347D",
"$+	c #17357F",
"%+	c #21418B",
"&+	c #3658A4",
"*+	c #5277C4",
"=+	c #5D88E2",
"-+	c #447FF5",
";+	c #6196FE",
">+	c #538BFF",
",+	c #3B7BFD",
"'+	c #3671E7",
")+	c #2A5AB8",
"!+	c #2957B5",
"~+	c #2B5BB9",
"{+	c #2C5EC2",
"]+	c #3979FB",
"^+	c #407FFF",
"/+	c #4D87FF",
"(+	c #5C91FB",
"_+	c #183178",
":+	c #173279",
"<+	c #1C3A82",
"[+	c #32529C",
"}+	c #5176C6",
"|+	c #668FE5",
"1+	c #719DF7",
"2+	c #4482FE",
"3+	c #3570E4",
"4+	c #3369D8",
"5+	c #244D9D",
"6+	c #224A9D",
"7+	c #2D5FC8",
"8+	c #3976F4",
"9+	c #6598FF",
"0+	c #72A0FF",
"a+	c #6D9DFF",
"b+	c #6B9DFF",
"c+	c #689AFE",
"d+	c #5C90F9",
"e+	c #183177",
"f+	c #244089",
"g+	c #496AB5",
"h+	c #698FE2",
"i+	c #6A9AF9",
"j+	c #6297FF",
"k+	c #346EE2",
"l+	c #3E7EFF",
"m+	c #5B91FF",
"n+	c #75A2FF",
"o+	c #77A4FF",
"p+	c #6F9FFF",
"q+	c #70A0FF",
"r+	c #6B9BFD",
"s+	c #5F91F2",
"t+	c #28438B",
"u+	c #5072BF",
"v+	c #6C97F0",
"w+	c #346CDE",
"x+	c #3D7DFD",
"y+	c #3E7BFF",
"z+	c #3872E4",
"A+	c #2E60C9",
"B+	c #2F61CC",
"C+	c #356AD5",
"D+	c #376DE3",
"E+	c #346ADE",
"F+	c #3775F1",
"G+	c #4885FF",
"H+	c #5F94FF",
"I+	c #6C9DFF",
"J+	c #71A0FF",
"K+	c #6798F9",
"L+	c #4E82E5",
"M+	c #20397E",
"N+	c #4666B3",
"O+	c #6793ED",
"P+	c #588FFF",
"Q+	c #3878FA",
"R+	c #588DFF",
"S+	c #1B58BB",
"T+	c #1E4485",
"U+	c #0F4188",
"V+	c #0B4492",
"W+	c #043B88",
"X+	c #023273",
"Y+	c #0F264D",
"Z+	c #112244",
"`+	c #122954",
" @	c #142C57",
".@	c #1A366D",
"+@	c #6195FF",
"@@	c #699AFE",
"#@	c #5388F2",
"$@	c #3169D1",
"%@	c #29438A",
"&@	c #567CCE",
"*@	c #6899FA",
"=@	c #5D92FF",
"-@	c #3362CB",
";@	c #123977",
">@	c #1E4984",
",@	c #304B7B",
"'@	c #333C51",
")@	c #303B53",
"!@	c #364F79",
"~@	c #334B76",
"{@	c #253C63",
"]@	c #17305C",
"^@	c #14284D",
"/@	c #112347",
"(@	c #0D1B39",
"_@	c #0F1E3E",
":@	c #12274F",
"<@	c #1D3D7B",
"[@	c #3F7DFC",
"}@	c #326FE8",
"|@	c #1E55BB",
"1@	c #314B94",
"2@	c #5F86DC",
"3@	c #719EFD",
"4@	c #73A1FF",
"5@	c #78A5FF",
"6@	c #2851A5",
"7@	c #254EA3",
"8@	c #2555A2",
"9@	c #2265D3",
"0@	c #19499A",
"a@	c #0E3174",
"b@	c #103B88",
"c@	c #113F8E",
"d@	c #2258B4",
"e@	c #265FB6",
"f@	c #6F7D94",
"g@	c #828792",
"h@	c #3F5EA0",
"i@	c #1E3C7C",
"j@	c #112349",
"k@	c #0E1F41",
"l@	c #0F2042",
"m@	c #3167D5",
"n@	c #2B64D4",
"o@	c #1A4FAF",
"p@	c #36529B",
"q@	c #628BE3",
"r@	c #74A1FE",
"s@	c #3861B7",
"t@	c #929BAD",
"u@	c #2167D5",
"v@	c #1B63D7",
"w@	c #113E8F",
"x@	c #030E32",
"y@	c #010828",
"z@	c #092868",
"A@	c #1450B6",
"B@	c #0A49AE",
"C@	c #899AB8",
"D@	c #C6C2BE",
"E@	c #B3B3B3",
"F@	c #5779C0",
"G@	c #20448F",
"H@	c #112853",
"I@	c #12264B",
"J@	c #173266",
"K@	c #326CDE",
"L@	c #2C66DB",
"M@	c #1A4DAD",
"N@	c #38549F",
"O@	c #638CE6",
"P@	c #709FFE",
"Q@	c #668BDA",
"R@	c #B3B6BD",
"S@	c #C9CACB",
"T@	c #487ACD",
"U@	c #1461D8",
"V@	c #217ADB",
"W@	c #2766AF",
"X@	c #2B63A7",
"Y@	c #3D86D6",
"Z@	c #2B77DE",
"`@	c #1D5DC5",
" #	c #AFB8C9",
".#	c #CFCDCA",
"+#	c #BCBCBC",
"@#	c #4E7CDA",
"##	c #1B3971",
"$#	c #132B56",
"%#	c #1B3A76",
"&#	c #3773EF",
"*#	c #4176E1",
"=#	c #2053B2",
"-#	c #3855A1",
";#	c #608BE8",
">#	c #2C63CB",
",#	c #5C82CF",
"'#	c #B9BBC0",
")#	c #DADADA",
"!#	c #E4E2DD",
"~#	c #ABBBD7",
"{#	c #1B7ADA",
"]#	c #4BA5E7",
"^#	c #92CAF2",
"/#	c #8FCAF0",
"(#	c #9CCDEC",
"_#	c #669FE5",
":#	c #7498D4",
"<#	c #E2E1DE",
"[#	c #D1D1D1",
"}#	c #98A2B8",
"|#	c #1C3A72",
"1#	c #183367",
"2#	c #4481FA",
"3#	c #4277E2",
"4#	c #2457B8",
"5#	c #3856A2",
"6#	c #4B7EEB",
"7#	c #3773ED",
"8#	c #2C5DBF",
"9#	c #326DDC",
"0#	c #4B71C0",
"a#	c #949CB1",
"b#	c #E5E5E5",
"c#	c #EBE8E6",
"d#	c #A3C8E3",
"e#	c #5CACE4",
"f#	c #519AE4",
"g#	c #4C9BE5",
"h#	c #7BBBE9",
"i#	c #A1BFE0",
"j#	c #DFDDDE",
"k#	c #CDCFD4",
"l#	c #8498C2",
"m#	c #4781F3",
"n#	c #204187",
"o#	c #2D5CBC",
"p#	c #4C86FD",
"q#	c #4F86F4",
"r#	c #4678D8",
"s#	c #2756B3",
"t#	c #3351A1",
"u#	c #4478EA",
"v#	c #3674F0",
"w#	c #6A96EF",
"x#	c #8494BB",
"y#	c #C5C7CB",
"z#	c #DDD9D6",
"A#	c #CED3D8",
"B#	c #BFCAD7",
"C#	c #C0CBD6",
"D#	c #C6CED3",
"E#	c #BCBFC8",
"F#	c #8498C4",
"G#	c #6695F3",
"H#	c #5189FC",
"I#	c #6292F4",
"J#	c #5584E1",
"K#	c #3C69C2",
"L#	c #2350A7",
"M#	c #2E4895",
"N#	c #4676DE",
"O#	c #20458C",
"P#	c #244B9A",
"Q#	c #5F92FA",
"R#	c #6F8FD9",
"S#	c #6B8DD8",
"T#	c #6C8DD9",
"U#	c #6D90D9",
"V#	c #5C92FF",
"W#	c #3167D6",
"X#	c #4C86FE",
"Y#	c #5C90FA",
"Z#	c #5E90F5",
"`#	c #5C8BEA",
" $	c #527ED8",
".$	c #406BC0",
"+$	c #2B56AA",
"@$	c #1F499D",
"#$	c #25397F",
"$$	c #4467B9",
"%$	c #5385EE",
"&$	c #5A90FE",
"*$	c #568EFF",
"=$	c #4281FF",
"-$	c #82ABFF",
";$	c #6E9FFF",
">$	c #80AAFF",
",$	c #4B85FF",
"'$	c #3A7AFC",
")$	c #5C91FD",
"!$	c #719DFA",
"~$	c #6594F4",
"{$	c #5D8BE9",
"]$	c #5683DD",
"^$	c #4C77D0",
"/$	c #416BC1",
"($	c #355EB2",
"_$	c #2C55A6",
":$	c #224C9D",
"<$	c #1C4697",
"[$	c #1E2D6E",
"}$	c #2A4187",
"|$	c #4968B7",
"1$	c #6F93E2",
"2$	c #779FF2",
"3$	c #78A1F7",
"4$	c #7DA5F8",
"5$	c #7EA6F9",
"6$	c #7EA7FA",
"7$	c #78A3FA",
"8$	c #7AA4F9",
"9$	c #78A2F9",
"0$	c #6595F8",
"a$	c #7CA4F6",
"b$	c #709CF6",
"c$	c #6E9AF5",
"d$	c #6A96F3",
"e$	c #6893ED",
"f$	c #658FE4",
"g$	c #5B84D8",
"h$	c #5077CB",
"i$	c #4168BB",
"j$	c #375DAE",
"k$	c #2F55A6",
"l$	c #2B51A2",
"m$	c #274E9F",
"n$	c #244B9B",
"o$	c #1E4696",
"p$	c #184091",
"q$	c #1C2B6B",
"r$	c #1D2C6E",
"s$	c #25387C",
"t$	c #3A549A",
"u$	c #4D6AB4",
"v$	c #5777C3",
"w$	c #5B7DC9",
"x$	c #5F81CD",
"y$	c #6183D0",
"z$	c #6184D1",
"A$	c #5F82CF",
"B$	c #5C7FCB",
"C$	c #597BC8",
"D$	c #5E7DC6",
"E$	c #5B7CC5",
"F$	c #5C7CC5",
"G$	c #5275C4",
"H$	c #5074C0",
"I$	c #4367B8",
"J$	c #3C5EAC",
"K$	c #3355A2",
"L$	c #2A4D9A",
"M$	c #254895",
"N$	c #224693",
"O$	c #234895",
"P$	c #214796",
"Q$	c #1E4493",
"R$	c #193F8F",
"S$	c #1D2B6A",
"T$	c #1C2C6B",
"U$	c #1C2C6C",
"V$	c #1F2F70",
"W$	c #233679",
"X$	c #283D80",
"Y$	c #2B4185",
"Z$	c #2E4489",
"`$	c #2E468C",
" %	c #2D478C",
".%	c #2C458C",
"+%	c #2A4389",
"@%	c #284288",
"#%	c #274187",
"$%	c #264187",
"%%	c #264188",
"&%	c #26438A",
"*%	c #25428B",
"=%	c #224089",
"-%	c #1E3C86",
";%	c #1A3B85",
">%	c #193A85",
",%	c #1A3A86",
"'%	c #1A3C87",
")%	c #1B3D89",
"!%	c #1B3E8C",
"~%	c #1B3F8C",
"{%	c #183C8B",
"]%	c #143A89",
"^%	c #1D2B69",
"/%	c #1C2D6D",
"(%	c #1B2D6E",
"_%	c #1B2D6F",
":%	c #1B2E6F",
"<%	c #1A2E71",
"[%	c #1A2F72",
"}%	c #1A2F73",
"|%	c #192F74",
"1%	c #193075",
"2%	c #183176",
"3%	c #183277",
"4%	c #173278",
"5%	c #173379",
"6%	c #17337B",
"7%	c #15347E",
"8%	c #143682",
"9%	c #143884",
"0%	c #1D2A69",
"a%	c #1C2B69",
"b%	c #1D2B6B",
"c%	c #1B2C6D",
"d%	c #1B2C6E",
"e%	c #1A2E72",
"f%	c #193074",
"g%	c #193176",
"h%	c #16357F",
"i%	c #1D2A68",
"j%	c #1C2B6A",
"k%	c #1B2C6C",
"l%	c #1C2C6D",
"m%	c #1B2E71",
"n%	c #1A2F71",
"o%	c #1A3074",
"p%	c #183075",
"q%	c #183279",
"r%	c #16357D",
"s%	c #15357F",
"t%	c #143782",
"u%	c #1E2967",
"v%	c #1D2968",
"w%	c #1B2E70",
"x%	c #192F73",
"y%	c #1A2F74",
"z%	c #193076",
"A%	c #1E2966",
"B%	c #1A2D70",
"C%	c #193073",
"D%	c #16337C",
"E%	c #16347C",
"F%	c #153581",
"G%	c #153781",
"H%	c #143683",
". . . . . . . . . . . . . . . . . . . . . . . . . . . . . . . . ",
". + @ # $ % & * * = - ; > , ' ) ! ~ { ] ^ / ( _ : < [ } | 1 2 . ",
". 3 4 5 $ 6 % & 7 8 = 9 > > 0 ' a b ~ c d ^ / e _ f g h i | j . ",
". k l m n @ $ o & * = p q r s t u v w x { y z A B C D E F G H . ",
". l I k J @ @ % o K L 8 p q M s N O P Q R S T U V W X Y Z `  .. ",
". ..+.@.#.$.@ %.% o & &.= = *.=.-.;.>.,.'.).!.~.{.].^./.(._.:.. ",
". <.[.}.|.$.1.@ %.% o 2.3.4.5.6.7.8.9.0.a.b.c.d.d.e.f.g.h.i.j.. ",
". k.l.m.m.|.|.n.5 %.o.p.q.r.s.t.u.v.w.d.x.y.z.A.h.B.C.D.E.F.G.. ",
". H.I.J.J.m.K.$.L.M.N.O.P.Q.R.S.T.U.h.f.h.V.V.W.X.Y.Z.`.T. +.+. ",
". ++H.@+#+$+%+&+*+=+-+;+>+,+'+x.)+F.Y.!+h.~+h.{+`.]+>+>+^+/+(+. ",
". _+:+H.<+[+}+|+1+2+'+3+4+y.h.D.D.5+6+Y.7+`.8+9+0+0+a+a+b+c+d+. ",
". e+++f+g+h+i+j+S.y.U.y.A.{+7+)+~+Z.k+l+m+a+n+o+n+p+0+0+q+r+s+. ",
". e+t+u+v+c+^+a.3+w+a.x+y+z+A+B+C+D+E+3+F+G+j+H+m+I+J+J+J+K+L+. ",
". M+N+O+P+Q+F+S.j+a+R+T.S+T+U+V+W+X+Y+Z+`+ @.@D.Z.,++@b+@@#@$@. ",
". %@&@*@=@+@0+o+I+-@;@>@,@'@)@!@~@{@]@^@/@(@_@`+:@<@4+]+[@}@|@. ",
". 1@2@3@4@5@0+'+6@7@8@9@0@a@b@c@d@e@f@g@h@i@j@k@l@k@.@7+m@n@o@. ",
". p@q@r@n++@V.C.s@t@u@v@w@x@y@z@A@B@C@D@E@F@G@H@ @I@J@Y.K@L@M@. ",
". N@O@P@S.x.z.Q@R@S@T@U@V@W@X@Y@Z@`@ #.#+#@#6+##$#%#6+~+&#*#=#. ",
". -#;#/+A+>#,#'#)#!#~#{#]#^#/#(#_#:#<#[#}#w+5+|#1#)+T.a.2#3#4#. ",
". 5#6#7#8#9#0#a#)#b#c#d#e#f#g#h#i#j#k#l#m#{+n#n#o# +Q+p#q#r#s#. ",
". t#u#`.B.!+B+v#w#x#y#z#A#B#C#D#E#F#G#]+d.D.5+x.,+/+H#I#J#K#L#. ",
". M#N#y.O#P#g.h.F+>+>+Q#R#S#T#U#V#7#T.W#e.`.l+X#Y#Z#`# $.$+$@$. ",
". #$$$%$&$*$=$P+5@-$a+;$>$m+P+n+S.,$'$G+)$!$~${$]$^$/$($_$:$<$. ",
". [$}$|$1$2$3$4$5$6$7$8$9$0$1+a$b$c$d$e$f$g$h$i$j$k$l$m$n$o$p$. ",
". q$r$s$t$u$v$w$x$y$z$A$B$C$D$E$F$G$H$I$J$K$L$M$N$N$O$P$Q$R$3.. ",
". S$T$U$V$W$X$Y$Z$`$ %.%+%@%#%$%%%&%*%=%-%;%>%,%'%)%!%~%{%]%7 . ",
". ^%S$q$U$/%(%_%:%<%[%}%|%|%1%2%3%4%5%6%<.J.7%+.@.$.8%@ 9%% o . ",
". 0%a%S$b%U$c%d%_%_%<%e%}%}%f%g%e+_+:+++6%<.J.7%h%$.$.J %.%.$ . ",
". i%i%S$j%q$k%l%d%_%_%m%n%[%o%p%g%2%e+q%++6%k.r%[.s%@.J t%@ % . ",
". u%v%i%0%S$q$U$l%(%_%w%<%<%x%y%1%z%e+_+:+H.6%<.J.[.|.@.8%t%%.. ",
". A%u%v%0%0%S$T$U$k%d%_%B%m%[%C%C%1%z%e+4%4%H.D%E%#+m.+.F%G%H%. ",
". . . . . . . . . . . . . . . . . . . . . . . . . . . . . . . . "};
