/* XPM */
static char * gftp_xpm[] = {
"24 24 253 2",
"  	c None",
". 	c #DAC68C",
"+ 	c #E3D295",
"@ 	c #DCCB96",
"# 	c #DCCA86",
"$ 	c #D1BB7A",
"% 	c #E2D08F",
"& 	c #E1D29F",
"* 	c #E2D28D",
"= 	c #FCF49C",
"- 	c #F4E98D",
"; 	c #D3BD72",
"> 	c #DFCC85",
", 	c #E1D2A1",
"' 	c #E4D491",
") 	c #FBF39E",
"! 	c #FEF699",
"~ 	c #FEF590",
"{ 	c #F0E17D",
"] 	c #D2BA69",
"^ 	c #DFCB82",
"/ 	c #E2D3A2",
"( 	c #E5D697",
"_ 	c #FCF39F",
": 	c #FEF49A",
"< 	c #FEF493",
"[ 	c #FEF28A",
"} 	c #FEF181",
"| 	c #F3E373",
"1 	c #CCB160",
"2 	c #DFC97C",
"3 	c #E6D8A4",
"4 	c #E8D999",
"5 	c #F3E79A",
"6 	c #FCF198",
"7 	c #FEF392",
"8 	c #FEF080",
"9 	c #FEEF77",
"0 	c #EDDA68",
"a 	c #DFC85D",
"b 	c #CCB158",
"c 	c #DEC572",
"d 	c #E7D6A2",
"e 	c #E9DA9B",
"f 	c #EDDE97",
"g 	c #C6AC79",
"h 	c #DDC97F",
"i 	c #FCEE88",
"j 	c #FEEF82",
"k 	c #FEEE78",
"l 	c #FEEC6E",
"m 	c #B69242",
"n 	c #A47D37",
"o 	c #DBC151",
"p 	c #D1B453",
"q 	c #DFC36C",
"r 	c #E7D69F",
"s 	c #EADA9D",
"t 	c #F1E298",
"u 	c #C5AC7D",
"v 	c #AF8E69",
"w 	c #AF8E61",
"x 	c #DBC36F",
"y 	c #FCEA78",
"z 	c #FEEB6D",
"A 	c #FEEA65",
"B 	c #B08A3C",
"C 	c #9D7332",
"D 	c #E8CD4F",
"E 	c #F3D94F",
"F 	c #CCAB4B",
"G 	c #DFC164",
"H 	c #EAD89E",
"I 	c #ECDB9C",
"J 	c #FBEB9A",
"K 	c #CFB681",
"L 	c #BB9D71",
"M 	c #AC8A64",
"N 	c #AB8759",
"O 	c #B59355",
"P 	c #E3CA60",
"Q 	c #FDE760",
"R 	c #FDE558",
"S 	c #B08938",
"T 	c #9D7230",
"U 	c #E8CA46",
"V 	c #FDE24A",
"W 	c #F3D443",
"X 	c #D2AF45",
"Y 	c #DEBC5C",
"Z 	c #E9D499",
"` 	c #ECDA9B",
" .	c #FCEC98",
"..	c #FCEB91",
"+.	c #F7E486",
"@.	c #E0C877",
"#.	c #B08D60",
"$.	c #C3A45C",
"%.	c #F4DD64",
"&.	c #F6DE5C",
"*.	c #FDE454",
"=.	c #FDE24D",
"-.	c #B08835",
";.	c #9D722F",
">.	c #E8C841",
",.	c #FDDF45",
"'.	c #FDDE43",
").	c #EFCD3E",
"!.	c #D1AD43",
"~.	c #DFBB59",
"{.	c #E7CF8F",
"].	c #EBD89A",
"^.	c #FDEB96",
"/.	c #FEEB90",
"(.	c #FEEB89",
"_.	c #FEE97F",
":.	c #E4CB70",
"<.	c #AD8A5B",
"[.	c #C5A456",
"}.	c #FEE55C",
"|.	c #FDE353",
"1.	c #FDE149",
"2.	c #FDE046",
"3.	c #B08733",
"4.	c #9D722E",
"5.	c #E8C63E",
"6.	c #FDDD42",
"7.	c #FDDC40",
"8.	c #FDDB3F",
"9.	c #F2CE3C",
"0.	c #CAA340",
"a.	c #E3BA4F",
"b.	c #D9B03F",
"c.	c #D9B859",
"d.	c #FBE273",
"e.	c #FEE678",
"f.	c #FEE676",
"g.	c #FEE572",
"h.	c #E3C765",
"i.	c #A98553",
"j.	c #C3A04E",
"k.	c #FEE153",
"l.	c #FDE04A",
"m.	c #FCDD43",
"n.	c #FCDC42",
"o.	c #AF8632",
"p.	c #9D712E",
"q.	c #E7C33C",
"r.	c #FCD93E",
"s.	c #FDD93D",
"t.	c #FDD83C",
"u.	c #F3CC39",
"v.	c #CA9E30",
"w.	c #E3B12A",
"x.	c #D4A82F",
"y.	c #D9B137",
"z.	c #FAD642",
"A.	c #FDDC4A",
"B.	c #FDDD4E",
"C.	c #DFBD49",
"D.	c #9F753B",
"E.	c #BE973E",
"F.	c #FEDD47",
"G.	c #FDDC42",
"H.	c #E1BC3A",
"I.	c #C19934",
"J.	c #9C702D",
"K.	c #93662B",
"L.	c #B68D31",
"M.	c #CEA534",
"N.	c #FCD53A",
"O.	c #EFC737",
"P.	c #D1A632",
"Q.	c #DFAE29",
"R.	c #D7AB2F",
"S.	c #DAB134",
"T.	c #FBD53A",
"U.	c #FDD83B",
"V.	c #DCB536",
"W.	c #976A2B",
"X.	c #B98F31",
"Y.	c #FEDA3D",
"Z.	c #EAC439",
"`.	c #AB7F2E",
" +	c #8B5C29",
".+	c #D7AD33",
"++	c #F2CA36",
"@+	c #D2A631",
"#+	c #DEAC28",
"$+	c #D4A62D",
"%+	c #D8AD32",
"&+	c #FBD337",
"*+	c #DDB434",
"=+	c #986B2B",
"-+	c #BA8E2F",
";+	c #FED739",
">+	c #FDD639",
",+	c #F1C936",
"'+	c #B2862E",
")+	c #A0722B",
"!+	c #DEB432",
"~+	c #F2C935",
"{+	c #CC9F2F",
"]+	c #DFAC28",
"^+	c #D3A42B",
"/+	c #D9AE31",
"(+	c #EABF33",
"_+	c #CB9F30",
":+	c #DCB031",
"<+	c #FDD436",
"[+	c #FDD336",
"}+	c #FDD335",
"|+	c #F1C633",
"1+	c #E0B431",
"2+	c #EFC432",
"3+	c #D1A42F",
"4+	c #DEAB27",
"5+	c #D6A72B",
"6+	c #D9AD30",
"7+	c #FACE32",
"8+	c #FCD033",
"9+	c #FDD133",
"0+	c #FDD132",
"a+	c #F3C631",
"b+	c #D1A32D",
"c+	c #DDA925",
"d+	c #D3A128",
"e+	c #D8A92D",
"f+	c #FACC2F",
"g+	c #FDCE30",
"h+	c #FDCE2F",
"i+	c #F3C32E",
"j+	c #CC9C2B",
"k+	c #DEA924",
"l+	c #D4A026",
"m+	c #D9A92C",
"n+	c #FAC92D",
"o+	c #FDCC2D",
"p+	c #EFBE2C",
"q+	c #D1A12A",
"r+	c #DFA923",
"s+	c #D7A326",
"t+	c #D9A82A",
"u+	c #FAC72A",
"v+	c #F3BF2A",
"w+	c #D19F29",
"x+	c #DEA722",
"y+	c #D49E23",
"z+	c #D5A127",
"A+	c #CB9827",
"B+	c #DFA620",
"C+	c #D59C20",
"D+	c #DFA51E",
"                                                ",
"                      . +                       ",
"                    @ # $ %                     ",
"                  & * = - ; >                   ",
"                , ' ) ! ~ { ] ^                 ",
"              / ( _ : < [ } | 1 2               ",
"            3 4 5 6 7 [ 8 9 0 a b c             ",
"          d e f g h i j k l m n o p q           ",
"        r s t u v w x y z A B C D E F G         ",
"      H I J K L M N O P Q R S T U V W X Y       ",
"    Z `  ...+.@.#.$.%.&.*.=.-.;.>.,.'.).!.~.    ",
"  {.].^./.(._.:.<.[.}.|.1.2.3.4.5.6.7.8.9.0.a.  ",
"  b.c.d.e.f.g.h.i.j.k.l.m.n.o.p.q.r.s.t.u.v.w.  ",
"    x.y.z.A.B.C.D.E.F.G.H.I.J.K.L.M.N.O.P.Q.    ",
"      R.S.T.U.V.W.X.Y.s.Z.`. + +W..+++@+#+      ",
"        $+%+&+*+=+-+;+>+>+,+'+)+!+~+{+]+        ",
"          ^+/+(+_+:+<+[+}+}+|+1+2+3+4+          ",
"            5+6+7+8+9+9+9+9+0+a+b+c+            ",
"              d+e+f+g+g+h+h+i+j+k+              ",
"                l+m+n+o+o+p+q+r+                ",
"                  s+t+u+v+w+x+                  ",
"                    y+z+A+B+                    ",
"                      C+D+                      ",
"                                                "};
